<!-- icon666.com - MILLIONS vector ICONS FREE --><svg id="Layer_1" enable-background="new 0 0 511.988 511.988" viewBox="0 0 511.988 511.988" xmlns="http://www.w3.org/2000/svg"><g><path d="m504.494 496.988c-40.209 0-76.791-8.776-108.731-26.086-27.263-14.774-51.966-36.225-73.424-63.753-13.518-17.343-24.951-36.04-34.721-54.784 15.168 19.644 32.313 36.135 50.629 43.863 43.826 18.49 84.208-14.683 86.299-58.635.796-16.742 5.277-27.472 16.78-39.813 29.998-32.189 25.54-84.264-18.294-102.717-26.706-11.244-64.82-8.199-100.301-.78 31.58-19.337 62.091-43.837 73.504-70.886 18.488-43.816-14.683-84.211-58.636-86.298-16.742-.796-27.471-5.278-39.813-16.78-7.487-6.979-15.974-14.889-28.87-18.292-17.005-4.487-35.322-1.451-50.257 8.334-8.112 5.314.109 17.86 8.221 12.547 21.163-13.865 43.31-7.806 60.679 8.385 14.809 13.8 29.007 19.825 49.328 20.789 33.647 1.6 59.954 31.295 45.527 65.483-18.835 44.64-101.475 84.032-137.418 99.389l54.468-125.874c3.852-8.899-9.915-14.858-13.766-5.957l-54.504 125.959c-12.89-34.919-39.086-115.865-24.119-161.755 3.009-9.218-11.254-13.87-14.26-4.65-8.542 26.187-5.42 61.328 1.463 94.219-19.335-31.573-43.831-62.075-70.874-73.485-43.817-18.485-84.211 14.682-86.298 58.637-.796 16.741-5.277 27.471-16.78 39.812-30.001 32.188-25.539 84.264 18.293 102.718 30.836 12.982 68.647 7.399 100.3.78-31.579 19.337-62.09 43.837-73.503 70.884-12.135 28.761-1.224 62.469 25.382 78.407 11.442 6.854 23.03 7.405 33.254 7.892 16.742.796 27.472 5.277 39.813 16.78 12.828 11.956 26.609 20.354 44.737 20.354 20.764 0 40.668-10.426 52.574-28.519 5.331-8.1-7.201-16.348-12.529-8.246-11.385 17.299-32.322 25.415-52.085 20.199-9.253-2.441-15.673-8.426-22.47-14.761-14.808-13.802-29.008-19.825-49.329-20.791-9.281-.441-18.048-.858-26.257-5.775-20.234-12.122-28.519-37.791-19.271-59.708 18.835-44.638 101.475-84.032 137.418-99.388l-54.467 125.875c-3.75 8.665 9.919 14.849 13.766 5.957l54.251-125.375c15.669 44.707 32.854 93.572 28.203 141.801-.931 9.654 13.999 11.09 14.932 1.439 1.092-11.333.874-24.082-.599-38.13 10.473 20.454 22.876 41.012 37.769 60.12 49.455 63.447 114.721 95.617 193.985 95.617 9.699-.002 9.699-15.002.001-15.002zm-87.283-288.1c34.157 14.38 36.123 54.004 13.142 78.665-13.802 14.808-19.825 29.008-20.791 49.329-1.6 33.646-31.295 59.953-65.483 45.526-44.565-18.804-83.898-101.195-99.309-137.233l125.739 54.409c8.568 3.707 14.827-9.929 5.957-13.766l-126.098-54.564c36.115-13.355 122.096-41.203 166.843-22.366zm-372.772 43.864c-34.157-14.38-36.122-54.005-13.141-78.666 13.802-14.806 19.826-29.007 20.79-49.327 1.596-33.56 31.15-60.016 65.483-45.528 44.715 18.867 84.167 101.757 99.468 137.602l-126.007-54.525c-8.9-3.851-14.857 9.916-5.957 13.766l125.827 54.447c-36.343 13.403-121.907 40.986-166.463 22.231z" fill="#000000" style="fill: rgb(22, 242, 249);"></path><path d="m58.43 446.053c-7.053 0-17.968-10.914-17.968-17.967 0-9.697-15-9.697-15 0 0 7.053-10.915 17.967-17.968 17.967-9.697 0-9.697 15 0 15 7.053 0 17.968 10.915 17.968 17.968 0 9.697 15 9.697 15 0 0-7.053 10.915-17.968 17.968-17.968 9.697 0 9.697-15 0-15zm-25.468 14.287c-1.994-2.491-4.296-4.793-6.787-6.787 2.491-1.993 4.793-4.295 6.787-6.787 1.994 2.492 4.296 4.794 6.787 6.787-2.491 1.994-4.793 4.296-6.787 6.787z" fill="#000000" style="fill: rgb(22, 242, 249);"></path><path d="m406.383 40.456c7.053 0 17.968 10.915 17.968 17.968 0 9.697 15 9.697 15 0 0-7.053 10.915-17.968 17.968-17.968 9.697 0 9.697-15 0-15-7.053 0-17.968-10.915-17.968-17.968 0-9.697-15-9.697-15 0 0 7.053-10.915 17.968-17.968 17.968-9.698 0-9.698 15 0 15zm25.468-14.287c1.994 2.491 4.296 4.793 6.787 6.787-2.491 1.994-4.793 4.296-6.787 6.787-1.994-2.491-4.296-4.793-6.787-6.787 2.491-1.994 4.792-4.296 6.787-6.787z" fill="#000000" style="fill: rgb(22, 242, 249);"></path><path d="m459.616 82.272c0 12.286-17.591 29.877-29.877 29.877-9.697 0-9.697 15 0 15 12.286 0 29.877 17.592 29.877 29.878 0 9.697 15 9.697 15 0 0-12.286 17.592-29.878 29.878-29.878 9.697 0 9.697-15 0-15-12.286 0-29.878-17.591-29.878-29.877 0-9.697-15-9.697-15 0zm23.461 37.377c-6.178 4.182-11.779 9.783-15.961 15.961-4.181-6.178-9.783-11.779-15.96-15.961 6.177-4.181 11.779-9.783 15.96-15.96 4.182 6.177 9.783 11.78 15.961 15.96z" fill="#000000" style="fill: rgb(22, 242, 249);"></path></g></svg>